<?xml version="1.0" encoding="UTF-8"?><svg id="Isolation_Mode" xmlns="http://www.w3.org/2000/svg" viewBox="0 0 512 512"><defs><style>.cls-1{fill:#fff;}</style></defs><path d="M448,0H64C28.6538,0,0,28.6538,0,64v448H512V64c0-35.3462-28.6538-64-64-64Zm0,448h-64v-106.6667c0-23.5641-19.1025-42.6667-42.6667-42.6667H170.6667c-23.5641,0-42.6667,19.1025-42.6667,42.6667v106.6667H64V64H448V448Z"/><path class="cls-1" d="M160.3999,448.626v-107.293c0-5.6611,4.6055-10.2656,10.2666-10.2656h170.6665c5.6611,0,10.2666,4.6045,10.2666,10.2656v107.293H160.3999Z"/><circle cx="256" cy="181.3334" r="74.6667"/><circle class="cls-1" cx="256" cy="181.3334" r="42.2668"/></svg>